Coordinates
version=1
nRows=4
nColumns=63
inDegrees=yes

Units are S.I. units (second, meters, Newtons, ...)
If the header above contains a line with 'inDegrees', this indicates whether rotational values are in degrees (yes) or radians (no).

endheader
time	pelvis_tilt	pelvis_list	pelvis_rotation	pelvis_tx	pelvis_ty	pelvis_tz	hip_flexion_r	hip_adduction_r	hip_rotation_r	knee_angle_r	knee_angle_r_beta	ankle_angle_r	subtalar_angle_r	mtp_angle_r	hip_flexion_l	hip_adduction_l	hip_rotation_l	knee_angle_l	knee_angle_l_beta	ankle_angle_l	subtalar_angle_l	mtp_angle_l	L5_S1_Flex_Ext	L5_S1_Lat_Bending	L5_S1_axial_rotation	L4_L5_Flex_Ext	L4_L5_Lat_Bending	L4_L5_axial_rotation	L3_L4_Flex_Ext	L3_L4_Lat_Bending	L3_L4_axial_rotation	L2_L3_Flex_Ext	L2_L3_Lat_Bending	L2_L3_axial_rotation	L1_L2_Flex_Ext	L1_L2_Lat_Bending	L1_L2_axial_rotation	L1_T12_Flex_Ext	L1_T12_Lat_Bending	L1_T12_axial_rotation	Abs_r3	Abs_r2	Abs_r1	Abs_t1	Abs_t2	neck_flexion	neck_bending	neck_rotation	arm_flex_r	arm_add_r	arm_rot_r	elbow_flex_r	pro_sup_r	wrist_flex_r	wrist_dev_r	arm_flex_l	arm_add_l	arm_rot_l	elbow_flex_l	pro_sup_l	wrist_flex_l	wrist_dev_l
      0.00000000	     -4.48755666	     -5.02037925	    106.66279973	      0.07030449	      0.94933313	      0.53896902	     -1.94569482	     -2.25749304	    -13.30753975	      4.69208500	      0.08189233	     18.27292145	      6.58893243	      0.00000000	      2.11200563	      3.83219566	      8.85871081	      4.59496846	      0.08019733	     20.54451951	      0.54976974	      0.00000000	      0.16093417	     -0.19786411	     -1.12454734	      0.29887085	     -0.26315927	     -1.19483155	      0.26439875	     -0.48108681	     -1.19483155	      0.18393166	     -0.48108681	     -0.98397892	      0.14944347	     -0.40348450	     -0.91369472	      0.09195779	     -0.30649151	     -0.84341051	      1.14953669	     -2.23827842	     -6.25439495	      0.00000000	      0.00000000	     23.89132314	     -2.66076382	     -7.41250590	      4.49319911	    -16.76413863	     47.79284927	     59.59764170	     62.24449430	     38.71296119	     -3.16876103	      9.93840139	    -11.67420744	     43.80016072	     57.56311977	     79.45289231	     40.95551361	      9.95075249
      0.01694915	     -4.18667936	     -4.74992940	    107.21543771	      0.07002284	      0.94934471	      0.54038485	     -1.68855388	     -2.00985880	    -14.46485661	      5.39896942	      0.09422979	     19.65425692	      7.79935735	      0.00000000	      2.08432852	      3.49264849	     10.14452470	      4.82925872	      0.08428647	     20.72404309	     -0.53646692	      0.00000000	      0.14877934	     -0.15461356	     -1.20645365	      0.27629810	     -0.20563604	     -1.28185701	      0.24442957	     -0.37592742	     -1.28185701	      0.17003990	     -0.37592742	     -1.05564695	      0.13815649	     -0.31528798	     -0.98024359	      0.08501251	     -0.23949641	     -0.90484024	      1.06271592	     -1.74901954	     -6.70993329	      0.00000000	      0.00000000	     23.28561514	     -2.86688351	     -7.01765434	      4.30935820	    -16.69193909	     47.82177030	     59.82271867	     74.07126736	     33.50376934	    -10.00191489	     10.24879182	    -11.29891816	     43.22122029	     56.80350108	     81.79221399	     44.01949569	     11.22904363
      0.03389831	     -3.94066313	     -4.49694332	    107.46358198	      0.06979234	      0.94934812	      0.54147567	     -1.45794940	     -1.83386708	    -15.15096762	      6.09802643	      0.10643064	     20.65200108	      8.54274576	      0.00000000	      2.00176550	      3.20504893	     10.77201585	      4.96488389	      0.08665357	     20.96360632	     -1.10986312	      0.00000000	      0.13110379	     -0.11396171	     -1.23378052	      0.24347285	     -0.15156908	     -1.31089180	      0.21539042	     -0.27708650	     -1.31089180	      0.14983852	     -0.27708650	     -1.07955795	      0.12174298	     -0.23239072	     -1.00244667	      0.07491271	     -0.17652669	     -0.92533539	      0.93646128	     -1.28915767	     -6.86191711	      0.00000000	      0.00000000	     22.60861245	     -3.01166187	     -6.84088070	      4.23181100	    -16.80373299	     48.28297576	     60.28130079	     82.61130303	     27.18567639	    -13.96777060	     10.54198280	    -11.02110182	     43.15149670	     56.22149369	     82.66845640	     45.43980960	     12.34522166
      0.05084746	     -3.71864543	     -4.26785636	    107.65662257	      0.06937394	      0.94935737	      0.54243463	     -1.26254311	     -1.68483088	    -15.72881125	      6.77374550	      0.11822416	     21.35510111	      9.01645971	      0.00000000	      1.94602855	      2.95977560	     11.16281040	      5.11990462	      0.08935919	     21.23253753	     -1.48311613	      0.00000000	      0.11138524	     -0.06948390	     -1.28198191	      0.20685353	     -0.09241359	     -1.36210578	      0.18299481	     -0.16894316	     -1.36210578	      0.12730219	     -0.16894316	     -1.12173418	      0.10343233	     -0.14169158	     -1.04161031	      0.06364553	     -0.10763057	     -0.96148644	      0.79561363	     -0.78601581	     -7.12999881	      0.00000000	      0.00000000	     21.97012380	     -2.95534601	     -6.14317612	      4.45863752	    -16.92106035	     49.28977911	     60.50778450	     86.75610484	     22.11186945	    -14.83261760	     10.75787245	    -10.83100721	     43.32265761	     55.65319011	     82.82565618	     45.81127651	     12.70403067
